<mxfile host="Electron" modified="2023-05-29T13:51:48.025Z" agent="Mozilla/5.0 (Windows NT 10.0; Win64; x64) AppleWebKit/537.36 (KHTML, like Gecko) draw.io/21.2.8 Chrome/112.0.5615.165 Electron/24.2.0 Safari/537.36" etag="KUX0R9KRrAZg9_Ra6Dx9" version="21.2.8" type="device" pages="4">
  <diagram name="Use-Case" id="QQ5Y-TXLVw4gwkbxKWof">
    <mxGraphModel dx="1418" dy="820" grid="1" gridSize="10" guides="1" tooltips="1" connect="1" arrows="1" fold="1" page="1" pageScale="1" pageWidth="850" pageHeight="1100" math="0" shadow="0">
      <root>
        <mxCell id="0" />
        <mxCell id="1" parent="0" />
        <mxCell id="yhWfdTrSdgtTu17OQwIP-1" value="Клієнт" style="shape=umlActor;verticalLabelPosition=bottom;verticalAlign=top;html=1;outlineConnect=0;" parent="1" vertex="1">
          <mxGeometry x="250" y="210" width="30" height="60" as="geometry" />
        </mxCell>
        <mxCell id="yhWfdTrSdgtTu17OQwIP-5" value="Працівник" style="shape=umlActor;verticalLabelPosition=bottom;verticalAlign=top;html=1;outlineConnect=0;" parent="1" vertex="1">
          <mxGeometry x="560" y="210" width="30" height="60" as="geometry" />
        </mxCell>
        <mxCell id="yhWfdTrSdgtTu17OQwIP-6" value="" style="rounded=0;whiteSpace=wrap;html=1;fillColor=none;" parent="1" vertex="1">
          <mxGeometry x="290" y="150" width="250" height="260" as="geometry" />
        </mxCell>
        <mxCell id="yhWfdTrSdgtTu17OQwIP-7" value="Отримати бокс" style="ellipse;whiteSpace=wrap;html=1;" parent="1" vertex="1">
          <mxGeometry x="300" y="230" width="110" height="20" as="geometry" />
        </mxCell>
        <mxCell id="yhWfdTrSdgtTu17OQwIP-8" value="Покласти бокс" style="ellipse;whiteSpace=wrap;html=1;" parent="1" vertex="1">
          <mxGeometry x="420" y="230" width="110" height="20" as="geometry" />
        </mxCell>
        <mxCell id="yhWfdTrSdgtTu17OQwIP-9" value="Налаштування терміналу" style="ellipse;whiteSpace=wrap;html=1;" parent="1" vertex="1">
          <mxGeometry x="420" y="260" width="110" height="40" as="geometry" />
        </mxCell>
        <mxCell id="yhWfdTrSdgtTu17OQwIP-10" value="Налаштування підключення до WiFi" style="ellipse;whiteSpace=wrap;html=1;" parent="1" vertex="1">
          <mxGeometry x="300" y="340" width="110" height="60" as="geometry" />
        </mxCell>
        <mxCell id="yhWfdTrSdgtTu17OQwIP-11" value="Налаштування підключення до MQTT" style="ellipse;whiteSpace=wrap;html=1;" parent="1" vertex="1">
          <mxGeometry x="420" y="340" width="110" height="60" as="geometry" />
        </mxCell>
        <mxCell id="yhWfdTrSdgtTu17OQwIP-14" value="" style="rounded=0;orthogonalLoop=1;jettySize=auto;dashed=1;html=1;fontSize=10;" parent="1" source="yhWfdTrSdgtTu17OQwIP-10" target="yhWfdTrSdgtTu17OQwIP-9" edge="1">
          <mxGeometry relative="1" as="geometry">
            <mxPoint x="308" y="589" as="sourcePoint" />
            <mxPoint x="452" y="536" as="targetPoint" />
          </mxGeometry>
        </mxCell>
        <mxCell id="yhWfdTrSdgtTu17OQwIP-15" value="&amp;lt;&amp;lt;includes&amp;gt;&amp;gt;" style="edgeLabel;align=center;verticalAlign=middle;resizable=0;points=[];html=1;fontSize=10;" parent="yhWfdTrSdgtTu17OQwIP-14" vertex="1" connectable="0">
          <mxGeometry x="0.1615" relative="1" as="geometry">
            <mxPoint x="-14" y="2" as="offset" />
          </mxGeometry>
        </mxCell>
        <mxCell id="yhWfdTrSdgtTu17OQwIP-16" value="" style="rounded=0;orthogonalLoop=1;jettySize=auto;dashed=1;html=1;fontSize=10;" parent="1" source="yhWfdTrSdgtTu17OQwIP-11" target="yhWfdTrSdgtTu17OQwIP-9" edge="1">
          <mxGeometry relative="1" as="geometry">
            <mxPoint x="318" y="599" as="sourcePoint" />
            <mxPoint x="462" y="546" as="targetPoint" />
          </mxGeometry>
        </mxCell>
        <mxCell id="yhWfdTrSdgtTu17OQwIP-17" value="&amp;lt;&amp;lt;includes&amp;gt;&amp;gt;" style="edgeLabel;align=center;verticalAlign=middle;resizable=0;points=[];html=1;fontSize=10;" parent="yhWfdTrSdgtTu17OQwIP-16" vertex="1" connectable="0">
          <mxGeometry x="0.1615" relative="1" as="geometry">
            <mxPoint y="3" as="offset" />
          </mxGeometry>
        </mxCell>
        <mxCell id="yhWfdTrSdgtTu17OQwIP-18" value="" style="endArrow=none;html=1;rounded=0;" parent="1" source="yhWfdTrSdgtTu17OQwIP-1" target="yhWfdTrSdgtTu17OQwIP-7" edge="1">
          <mxGeometry width="50" height="50" relative="1" as="geometry">
            <mxPoint x="120" y="380" as="sourcePoint" />
            <mxPoint x="170" y="330" as="targetPoint" />
          </mxGeometry>
        </mxCell>
        <mxCell id="yhWfdTrSdgtTu17OQwIP-21" value="" style="endArrow=none;html=1;rounded=0;" parent="1" source="yhWfdTrSdgtTu17OQwIP-8" target="yhWfdTrSdgtTu17OQwIP-5" edge="1">
          <mxGeometry width="50" height="50" relative="1" as="geometry">
            <mxPoint x="200" y="250" as="sourcePoint" />
            <mxPoint x="290" y="250" as="targetPoint" />
          </mxGeometry>
        </mxCell>
        <mxCell id="yhWfdTrSdgtTu17OQwIP-23" value="" style="endArrow=none;html=1;rounded=0;" parent="1" source="yhWfdTrSdgtTu17OQwIP-9" target="yhWfdTrSdgtTu17OQwIP-5" edge="1">
          <mxGeometry width="50" height="50" relative="1" as="geometry">
            <mxPoint x="540" y="250" as="sourcePoint" />
            <mxPoint x="570" y="250" as="targetPoint" />
          </mxGeometry>
        </mxCell>
        <mxCell id="yhWfdTrSdgtTu17OQwIP-24" value="Отримати інформацію про стан підключення" style="ellipse;whiteSpace=wrap;html=1;" parent="1" vertex="1">
          <mxGeometry x="300" y="160" width="230" height="50" as="geometry" />
        </mxCell>
        <mxCell id="yhWfdTrSdgtTu17OQwIP-26" value="" style="endArrow=none;html=1;rounded=0;" parent="1" source="yhWfdTrSdgtTu17OQwIP-24" target="yhWfdTrSdgtTu17OQwIP-5" edge="1">
          <mxGeometry width="50" height="50" relative="1" as="geometry">
            <mxPoint x="522" y="275" as="sourcePoint" />
            <mxPoint x="570" y="256" as="targetPoint" />
          </mxGeometry>
        </mxCell>
        <mxCell id="yhWfdTrSdgtTu17OQwIP-27" value="" style="endArrow=none;html=1;rounded=0;" parent="1" source="yhWfdTrSdgtTu17OQwIP-1" target="yhWfdTrSdgtTu17OQwIP-24" edge="1">
          <mxGeometry width="50" height="50" relative="1" as="geometry">
            <mxPoint x="487" y="216" as="sourcePoint" />
            <mxPoint x="570" y="245" as="targetPoint" />
          </mxGeometry>
        </mxCell>
      </root>
    </mxGraphModel>
  </diagram>
  <diagram id="sRdlX-RWd7SInb0Xz-m9" name="Interaction Overview">
    <mxGraphModel dx="1182" dy="683" grid="1" gridSize="10" guides="1" tooltips="1" connect="1" arrows="1" fold="1" page="1" pageScale="1" pageWidth="850" pageHeight="1100" math="0" shadow="0">
      <root>
        <mxCell id="0" />
        <mxCell id="1" parent="0" />
        <mxCell id="zswjcrRMalwncXxvHD72-5" value="" style="edgeStyle=orthogonalEdgeStyle;rounded=0;orthogonalLoop=1;jettySize=auto;html=1;" edge="1" parent="1" source="zswjcrRMalwncXxvHD72-1" target="zswjcrRMalwncXxvHD72-3">
          <mxGeometry relative="1" as="geometry" />
        </mxCell>
        <mxCell id="zswjcrRMalwncXxvHD72-1" value="" style="ellipse;whiteSpace=wrap;html=1;aspect=fixed;" vertex="1" parent="1">
          <mxGeometry x="435" y="50" width="50" height="50" as="geometry" />
        </mxCell>
        <mxCell id="zswjcrRMalwncXxvHD72-8" value="" style="edgeStyle=orthogonalEdgeStyle;rounded=0;orthogonalLoop=1;jettySize=auto;html=1;" edge="1" parent="1" source="zswjcrRMalwncXxvHD72-3" target="zswjcrRMalwncXxvHD72-6">
          <mxGeometry relative="1" as="geometry" />
        </mxCell>
        <mxCell id="zswjcrRMalwncXxvHD72-3" value="&lt;b style=&quot;border-color: var(--border-color);&quot;&gt;Ref&lt;/b&gt;" style="shape=umlFrame;whiteSpace=wrap;html=1;pointerEvents=0;recursiveResize=0;container=1;collapsible=0;width=40;height=20;" vertex="1" parent="1">
          <mxGeometry x="390" y="120" width="140" height="50" as="geometry" />
        </mxCell>
        <mxCell id="zswjcrRMalwncXxvHD72-4" value="Підключення комірок" style="text;align=center;html=1;" vertex="1" parent="zswjcrRMalwncXxvHD72-3">
          <mxGeometry width="120" height="20" relative="1" as="geometry">
            <mxPoint x="10" y="20" as="offset" />
          </mxGeometry>
        </mxCell>
        <mxCell id="zswjcrRMalwncXxvHD72-10" value="" style="edgeStyle=orthogonalEdgeStyle;rounded=0;orthogonalLoop=1;jettySize=auto;html=1;" edge="1" parent="1" source="zswjcrRMalwncXxvHD72-6" target="zswjcrRMalwncXxvHD72-9">
          <mxGeometry relative="1" as="geometry" />
        </mxCell>
        <mxCell id="zswjcrRMalwncXxvHD72-6" value="&lt;b style=&quot;border-color: var(--border-color);&quot;&gt;Ref&lt;/b&gt;" style="shape=umlFrame;whiteSpace=wrap;html=1;pointerEvents=0;recursiveResize=0;container=1;collapsible=0;width=40;height=20;" vertex="1" parent="1">
          <mxGeometry x="330" y="190" width="260" height="50" as="geometry" />
        </mxCell>
        <mxCell id="zswjcrRMalwncXxvHD72-7" value="Перевірка на необхідність зміни конфігурації" style="text;align=center;html=1;" vertex="1" parent="zswjcrRMalwncXxvHD72-6">
          <mxGeometry width="240" height="20" relative="1" as="geometry">
            <mxPoint x="10" y="20" as="offset" />
          </mxGeometry>
        </mxCell>
        <mxCell id="zswjcrRMalwncXxvHD72-13" style="edgeStyle=orthogonalEdgeStyle;rounded=0;orthogonalLoop=1;jettySize=auto;html=1;" edge="1" parent="1" source="zswjcrRMalwncXxvHD72-9" target="zswjcrRMalwncXxvHD72-11">
          <mxGeometry relative="1" as="geometry" />
        </mxCell>
        <mxCell id="zswjcrRMalwncXxvHD72-14" value="[Так]" style="edgeLabel;html=1;align=center;verticalAlign=middle;resizable=0;points=[];" vertex="1" connectable="0" parent="zswjcrRMalwncXxvHD72-13">
          <mxGeometry x="0.0201" y="2" relative="1" as="geometry">
            <mxPoint as="offset" />
          </mxGeometry>
        </mxCell>
        <mxCell id="zswjcrRMalwncXxvHD72-38" style="edgeStyle=orthogonalEdgeStyle;rounded=0;orthogonalLoop=1;jettySize=auto;html=1;" edge="1" parent="1" source="zswjcrRMalwncXxvHD72-9" target="zswjcrRMalwncXxvHD72-36">
          <mxGeometry relative="1" as="geometry" />
        </mxCell>
        <mxCell id="zswjcrRMalwncXxvHD72-39" value="[Ні]" style="edgeLabel;html=1;align=center;verticalAlign=middle;resizable=0;points=[];" vertex="1" connectable="0" parent="zswjcrRMalwncXxvHD72-38">
          <mxGeometry x="-0.3489" y="-1" relative="1" as="geometry">
            <mxPoint x="1" y="-6" as="offset" />
          </mxGeometry>
        </mxCell>
        <mxCell id="zswjcrRMalwncXxvHD72-9" value="" style="rhombus;whiteSpace=wrap;html=1;" vertex="1" parent="1">
          <mxGeometry x="450" y="260" width="20" height="30" as="geometry" />
        </mxCell>
        <mxCell id="zswjcrRMalwncXxvHD72-32" value="" style="edgeStyle=orthogonalEdgeStyle;rounded=0;orthogonalLoop=1;jettySize=auto;html=1;" edge="1" parent="1" source="zswjcrRMalwncXxvHD72-11" target="zswjcrRMalwncXxvHD72-17">
          <mxGeometry relative="1" as="geometry" />
        </mxCell>
        <mxCell id="zswjcrRMalwncXxvHD72-11" value="&lt;b style=&quot;border-color: var(--border-color);&quot;&gt;Ref&lt;/b&gt;" style="shape=umlFrame;whiteSpace=wrap;html=1;pointerEvents=0;recursiveResize=0;container=1;collapsible=0;width=40;height=20;" vertex="1" parent="1">
          <mxGeometry x="90" y="250" width="240" height="50" as="geometry" />
        </mxCell>
        <mxCell id="zswjcrRMalwncXxvHD72-12" value="Запуск точки доступу для налаштування" style="text;align=center;html=1;" vertex="1" parent="zswjcrRMalwncXxvHD72-11">
          <mxGeometry width="220" height="20" relative="1" as="geometry">
            <mxPoint x="10" y="20" as="offset" />
          </mxGeometry>
        </mxCell>
        <mxCell id="zswjcrRMalwncXxvHD72-40" style="edgeStyle=orthogonalEdgeStyle;rounded=0;orthogonalLoop=1;jettySize=auto;html=1;" edge="1" parent="1" source="zswjcrRMalwncXxvHD72-17" target="zswjcrRMalwncXxvHD72-36">
          <mxGeometry relative="1" as="geometry">
            <Array as="points" />
          </mxGeometry>
        </mxCell>
        <mxCell id="zswjcrRMalwncXxvHD72-17" value="&lt;b style=&quot;border-color: var(--border-color);&quot;&gt;CD&amp;nbsp;&lt;/b&gt;Налаштування" style="shape=umlFrame;whiteSpace=wrap;html=1;pointerEvents=0;recursiveResize=0;container=1;collapsible=0;width=120;height=20;" vertex="1" parent="1">
          <mxGeometry x="110" y="320" width="200" height="160" as="geometry" />
        </mxCell>
        <mxCell id="zswjcrRMalwncXxvHD72-18" value="Користувач" style="shape=umlLifeline;perimeter=lifelinePerimeter;whiteSpace=wrap;html=1;container=1;dropTarget=0;collapsible=0;recursiveResize=0;outlineConnect=0;portConstraint=eastwest;newEdgeStyle={&quot;edgeStyle&quot;:&quot;elbowEdgeStyle&quot;,&quot;elbow&quot;:&quot;vertical&quot;,&quot;curved&quot;:0,&quot;rounded&quot;:0};size=20;" vertex="1" parent="zswjcrRMalwncXxvHD72-17">
          <mxGeometry x="120" y="30" width="70" height="120" as="geometry" />
        </mxCell>
        <mxCell id="zswjcrRMalwncXxvHD72-22" value="" style="html=1;points=[];perimeter=orthogonalPerimeter;outlineConnect=0;targetShapes=umlLifeline;portConstraint=eastwest;newEdgeStyle={&quot;edgeStyle&quot;:&quot;elbowEdgeStyle&quot;,&quot;elbow&quot;:&quot;vertical&quot;,&quot;curved&quot;:0,&quot;rounded&quot;:0};" vertex="1" parent="zswjcrRMalwncXxvHD72-18">
          <mxGeometry x="30" y="30" width="10" height="80" as="geometry" />
        </mxCell>
        <mxCell id="zswjcrRMalwncXxvHD72-20" value="Термінал" style="shape=umlLifeline;perimeter=lifelinePerimeter;whiteSpace=wrap;html=1;container=1;dropTarget=0;collapsible=0;recursiveResize=0;outlineConnect=0;portConstraint=eastwest;newEdgeStyle={&quot;edgeStyle&quot;:&quot;elbowEdgeStyle&quot;,&quot;elbow&quot;:&quot;vertical&quot;,&quot;curved&quot;:0,&quot;rounded&quot;:0};size=20;" vertex="1" parent="zswjcrRMalwncXxvHD72-17">
          <mxGeometry x="10" y="30" width="60" height="120" as="geometry" />
        </mxCell>
        <mxCell id="zswjcrRMalwncXxvHD72-21" value="" style="html=1;points=[];perimeter=orthogonalPerimeter;outlineConnect=0;targetShapes=umlLifeline;portConstraint=eastwest;newEdgeStyle={&quot;edgeStyle&quot;:&quot;elbowEdgeStyle&quot;,&quot;elbow&quot;:&quot;vertical&quot;,&quot;curved&quot;:0,&quot;rounded&quot;:0};" vertex="1" parent="zswjcrRMalwncXxvHD72-20">
          <mxGeometry x="25" y="30" width="10" height="80" as="geometry" />
        </mxCell>
        <mxCell id="zswjcrRMalwncXxvHD72-23" value="" style="edgeStyle=elbowEdgeStyle;rounded=0;orthogonalLoop=1;jettySize=auto;html=1;elbow=vertical;curved=0;startArrow=classic;startFill=1;endArrow=none;endFill=0;" edge="1" parent="zswjcrRMalwncXxvHD72-17" source="zswjcrRMalwncXxvHD72-21" target="zswjcrRMalwncXxvHD72-22">
          <mxGeometry relative="1" as="geometry">
            <Array as="points">
              <mxPoint x="80" y="70" />
              <mxPoint x="90" y="100" />
            </Array>
          </mxGeometry>
        </mxCell>
        <mxCell id="zswjcrRMalwncXxvHD72-24" value="1: getPage&amp;nbsp;" style="edgeLabel;html=1;align=center;verticalAlign=middle;resizable=0;points=[];" vertex="1" connectable="0" parent="zswjcrRMalwncXxvHD72-23">
          <mxGeometry x="-0.0205" relative="1" as="geometry">
            <mxPoint y="-10" as="offset" />
          </mxGeometry>
        </mxCell>
        <mxCell id="zswjcrRMalwncXxvHD72-25" value="" style="edgeStyle=elbowEdgeStyle;rounded=0;orthogonalLoop=1;jettySize=auto;html=1;elbow=vertical;curved=0;dashed=1;" edge="1" parent="zswjcrRMalwncXxvHD72-17" source="zswjcrRMalwncXxvHD72-21" target="zswjcrRMalwncXxvHD72-22">
          <mxGeometry relative="1" as="geometry">
            <Array as="points">
              <mxPoint x="100" y="90" />
              <mxPoint x="90" y="100" />
              <mxPoint x="80" y="90" />
            </Array>
          </mxGeometry>
        </mxCell>
        <mxCell id="zswjcrRMalwncXxvHD72-27" value="settings page" style="edgeLabel;html=1;align=center;verticalAlign=middle;resizable=0;points=[];" vertex="1" connectable="0" parent="zswjcrRMalwncXxvHD72-25">
          <mxGeometry x="-0.0462" relative="1" as="geometry">
            <mxPoint y="-10" as="offset" />
          </mxGeometry>
        </mxCell>
        <mxCell id="zswjcrRMalwncXxvHD72-28" value="" style="edgeStyle=elbowEdgeStyle;rounded=0;orthogonalLoop=1;jettySize=auto;html=1;elbow=vertical;curved=0;" edge="1" parent="zswjcrRMalwncXxvHD72-17" source="zswjcrRMalwncXxvHD72-22" target="zswjcrRMalwncXxvHD72-21">
          <mxGeometry relative="1" as="geometry">
            <Array as="points">
              <mxPoint x="100" y="110" />
              <mxPoint x="90" y="130" />
            </Array>
          </mxGeometry>
        </mxCell>
        <mxCell id="zswjcrRMalwncXxvHD72-29" value="2: setSettings" style="edgeLabel;html=1;align=center;verticalAlign=middle;resizable=0;points=[];" vertex="1" connectable="0" parent="zswjcrRMalwncXxvHD72-28">
          <mxGeometry x="0.1158" y="-1" relative="1" as="geometry">
            <mxPoint y="-9" as="offset" />
          </mxGeometry>
        </mxCell>
        <mxCell id="zswjcrRMalwncXxvHD72-30" value="" style="edgeStyle=elbowEdgeStyle;rounded=0;orthogonalLoop=1;jettySize=auto;html=1;elbow=vertical;curved=0;dashed=1;" edge="1" parent="zswjcrRMalwncXxvHD72-17" source="zswjcrRMalwncXxvHD72-21" target="zswjcrRMalwncXxvHD72-22">
          <mxGeometry relative="1" as="geometry">
            <Array as="points">
              <mxPoint x="100" y="130" />
              <mxPoint x="60" y="160" />
            </Array>
          </mxGeometry>
        </mxCell>
        <mxCell id="zswjcrRMalwncXxvHD72-31" value="result page" style="edgeLabel;html=1;align=center;verticalAlign=middle;resizable=0;points=[];" vertex="1" connectable="0" parent="zswjcrRMalwncXxvHD72-30">
          <mxGeometry x="-0.1451" relative="1" as="geometry">
            <mxPoint x="10" y="-10" as="offset" />
          </mxGeometry>
        </mxCell>
        <mxCell id="zswjcrRMalwncXxvHD72-43" style="edgeStyle=orthogonalEdgeStyle;rounded=0;orthogonalLoop=1;jettySize=auto;html=1;" edge="1" parent="1" source="zswjcrRMalwncXxvHD72-36" target="zswjcrRMalwncXxvHD72-44">
          <mxGeometry relative="1" as="geometry">
            <mxPoint x="460" y="390" as="targetPoint" />
            <Array as="points">
              <mxPoint x="460" y="500" />
            </Array>
          </mxGeometry>
        </mxCell>
        <mxCell id="zswjcrRMalwncXxvHD72-36" value="&lt;b&gt;Ref&lt;/b&gt;" style="shape=umlFrame;whiteSpace=wrap;html=1;pointerEvents=0;recursiveResize=0;container=1;collapsible=0;width=40;height=20;" vertex="1" parent="1">
          <mxGeometry x="390" y="375" width="140" height="50" as="geometry" />
        </mxCell>
        <mxCell id="zswjcrRMalwncXxvHD72-37" value="Підключення до WiFi" style="text;align=center;html=1;" vertex="1" parent="zswjcrRMalwncXxvHD72-36">
          <mxGeometry width="120" height="20" relative="1" as="geometry">
            <mxPoint x="10" y="20" as="offset" />
          </mxGeometry>
        </mxCell>
        <mxCell id="zswjcrRMalwncXxvHD72-70" style="edgeStyle=orthogonalEdgeStyle;rounded=0;orthogonalLoop=1;jettySize=auto;html=1;" edge="1" parent="1" source="zswjcrRMalwncXxvHD72-44" target="zswjcrRMalwncXxvHD72-67">
          <mxGeometry relative="1" as="geometry" />
        </mxCell>
        <mxCell id="zswjcrRMalwncXxvHD72-44" value="&lt;b&gt;CD &lt;/b&gt;Підключення до MQTT брокера" style="shape=umlFrame;whiteSpace=wrap;html=1;pointerEvents=0;recursiveResize=0;container=1;collapsible=0;width=120;height=30;" vertex="1" parent="1">
          <mxGeometry x="110" y="490" width="200" height="170" as="geometry" />
        </mxCell>
        <mxCell id="zswjcrRMalwncXxvHD72-45" value="Брокер" style="shape=umlLifeline;perimeter=lifelinePerimeter;whiteSpace=wrap;html=1;container=1;dropTarget=0;collapsible=0;recursiveResize=0;outlineConnect=0;portConstraint=eastwest;newEdgeStyle={&quot;edgeStyle&quot;:&quot;elbowEdgeStyle&quot;,&quot;elbow&quot;:&quot;vertical&quot;,&quot;curved&quot;:0,&quot;rounded&quot;:0};size=20;" vertex="1" parent="zswjcrRMalwncXxvHD72-44">
          <mxGeometry x="120" y="40" width="70" height="120" as="geometry" />
        </mxCell>
        <mxCell id="zswjcrRMalwncXxvHD72-46" value="" style="html=1;points=[];perimeter=orthogonalPerimeter;outlineConnect=0;targetShapes=umlLifeline;portConstraint=eastwest;newEdgeStyle={&quot;edgeStyle&quot;:&quot;elbowEdgeStyle&quot;,&quot;elbow&quot;:&quot;vertical&quot;,&quot;curved&quot;:0,&quot;rounded&quot;:0};" vertex="1" parent="zswjcrRMalwncXxvHD72-45">
          <mxGeometry x="30" y="30" width="10" height="80" as="geometry" />
        </mxCell>
        <mxCell id="zswjcrRMalwncXxvHD72-47" value="Термінал" style="shape=umlLifeline;perimeter=lifelinePerimeter;whiteSpace=wrap;html=1;container=1;dropTarget=0;collapsible=0;recursiveResize=0;outlineConnect=0;portConstraint=eastwest;newEdgeStyle={&quot;edgeStyle&quot;:&quot;elbowEdgeStyle&quot;,&quot;elbow&quot;:&quot;vertical&quot;,&quot;curved&quot;:0,&quot;rounded&quot;:0};size=20;" vertex="1" parent="zswjcrRMalwncXxvHD72-44">
          <mxGeometry x="10" y="40" width="60" height="120" as="geometry" />
        </mxCell>
        <mxCell id="zswjcrRMalwncXxvHD72-48" value="" style="html=1;points=[];perimeter=orthogonalPerimeter;outlineConnect=0;targetShapes=umlLifeline;portConstraint=eastwest;newEdgeStyle={&quot;edgeStyle&quot;:&quot;elbowEdgeStyle&quot;,&quot;elbow&quot;:&quot;vertical&quot;,&quot;curved&quot;:0,&quot;rounded&quot;:0};" vertex="1" parent="zswjcrRMalwncXxvHD72-47">
          <mxGeometry x="25" y="30" width="10" height="80" as="geometry" />
        </mxCell>
        <mxCell id="zswjcrRMalwncXxvHD72-57" value="" style="edgeStyle=elbowEdgeStyle;rounded=0;orthogonalLoop=1;jettySize=auto;html=1;elbow=vertical;curved=0;" edge="1" parent="zswjcrRMalwncXxvHD72-44" source="zswjcrRMalwncXxvHD72-48" target="zswjcrRMalwncXxvHD72-46">
          <mxGeometry relative="1" as="geometry">
            <Array as="points">
              <mxPoint x="70" y="80" />
            </Array>
          </mxGeometry>
        </mxCell>
        <mxCell id="zswjcrRMalwncXxvHD72-58" value="1: сonnect" style="edgeLabel;html=1;align=center;verticalAlign=middle;resizable=0;points=[];" vertex="1" connectable="0" parent="zswjcrRMalwncXxvHD72-57">
          <mxGeometry x="-0.2305" relative="1" as="geometry">
            <mxPoint x="15" y="-10" as="offset" />
          </mxGeometry>
        </mxCell>
        <mxCell id="zswjcrRMalwncXxvHD72-59" value="" style="edgeStyle=elbowEdgeStyle;rounded=0;orthogonalLoop=1;jettySize=auto;html=1;elbow=vertical;curved=0;" edge="1" parent="zswjcrRMalwncXxvHD72-44" source="zswjcrRMalwncXxvHD72-48" target="zswjcrRMalwncXxvHD72-46">
          <mxGeometry relative="1" as="geometry">
            <Array as="points">
              <mxPoint x="90" y="120" />
              <mxPoint x="70" y="100" />
            </Array>
          </mxGeometry>
        </mxCell>
        <mxCell id="zswjcrRMalwncXxvHD72-60" value="2: subsribe" style="edgeLabel;html=1;align=center;verticalAlign=middle;resizable=0;points=[];" vertex="1" connectable="0" parent="zswjcrRMalwncXxvHD72-59">
          <mxGeometry x="-0.139" relative="1" as="geometry">
            <mxPoint x="10" y="-10" as="offset" />
          </mxGeometry>
        </mxCell>
        <mxCell id="zswjcrRMalwncXxvHD72-62" value="" style="edgeStyle=elbowEdgeStyle;rounded=0;orthogonalLoop=1;jettySize=auto;html=1;elbow=vertical;curved=0;dashed=1;" edge="1" parent="zswjcrRMalwncXxvHD72-44" source="zswjcrRMalwncXxvHD72-46" target="zswjcrRMalwncXxvHD72-48">
          <mxGeometry relative="1" as="geometry">
            <Array as="points">
              <mxPoint x="140" y="100" />
            </Array>
          </mxGeometry>
        </mxCell>
        <mxCell id="zswjcrRMalwncXxvHD72-64" value="response" style="edgeLabel;html=1;align=center;verticalAlign=middle;resizable=0;points=[];" vertex="1" connectable="0" parent="zswjcrRMalwncXxvHD72-62">
          <mxGeometry x="0.0781" relative="1" as="geometry">
            <mxPoint x="7" y="-10" as="offset" />
          </mxGeometry>
        </mxCell>
        <mxCell id="zswjcrRMalwncXxvHD72-63" value="" style="edgeStyle=elbowEdgeStyle;rounded=0;orthogonalLoop=1;jettySize=auto;html=1;elbow=vertical;curved=0;dashed=1;" edge="1" parent="zswjcrRMalwncXxvHD72-44" source="zswjcrRMalwncXxvHD72-46" target="zswjcrRMalwncXxvHD72-48">
          <mxGeometry relative="1" as="geometry">
            <Array as="points">
              <mxPoint x="60" y="140" />
            </Array>
          </mxGeometry>
        </mxCell>
        <mxCell id="zswjcrRMalwncXxvHD72-66" value="response" style="edgeLabel;html=1;align=center;verticalAlign=middle;resizable=0;points=[];" vertex="1" connectable="0" parent="zswjcrRMalwncXxvHD72-63">
          <mxGeometry x="-0.0133" relative="1" as="geometry">
            <mxPoint x="2" y="-10" as="offset" />
          </mxGeometry>
        </mxCell>
        <mxCell id="zswjcrRMalwncXxvHD72-72" value="" style="edgeStyle=orthogonalEdgeStyle;rounded=0;orthogonalLoop=1;jettySize=auto;html=1;" edge="1" parent="1" source="zswjcrRMalwncXxvHD72-67" target="zswjcrRMalwncXxvHD72-71">
          <mxGeometry relative="1" as="geometry" />
        </mxCell>
        <mxCell id="zswjcrRMalwncXxvHD72-67" value="&lt;b style=&quot;border-color: var(--border-color);&quot;&gt;Ref&lt;/b&gt;" style="shape=umlFrame;whiteSpace=wrap;html=1;pointerEvents=0;recursiveResize=0;container=1;collapsible=0;width=40;height=20;" vertex="1" parent="1">
          <mxGeometry x="330" y="550" width="220" height="50" as="geometry" />
        </mxCell>
        <mxCell id="zswjcrRMalwncXxvHD72-68" value="Перевірка підключення до Інтернету" style="text;align=center;html=1;" vertex="1" parent="zswjcrRMalwncXxvHD72-67">
          <mxGeometry width="200" height="20" relative="1" as="geometry">
            <mxPoint x="10" y="20" as="offset" />
          </mxGeometry>
        </mxCell>
        <mxCell id="zswjcrRMalwncXxvHD72-75" style="edgeStyle=orthogonalEdgeStyle;rounded=0;orthogonalLoop=1;jettySize=auto;html=1;exitX=1;exitY=0.5;exitDx=0;exitDy=0;" edge="1" parent="1" source="zswjcrRMalwncXxvHD72-71" target="zswjcrRMalwncXxvHD72-73">
          <mxGeometry relative="1" as="geometry" />
        </mxCell>
        <mxCell id="zswjcrRMalwncXxvHD72-110" value="[Немає]" style="edgeLabel;html=1;align=center;verticalAlign=middle;resizable=0;points=[];" vertex="1" connectable="0" parent="zswjcrRMalwncXxvHD72-75">
          <mxGeometry x="-0.1581" y="1" relative="1" as="geometry">
            <mxPoint x="-10" y="1" as="offset" />
          </mxGeometry>
        </mxCell>
        <mxCell id="zswjcrRMalwncXxvHD72-78" style="edgeStyle=orthogonalEdgeStyle;rounded=0;orthogonalLoop=1;jettySize=auto;html=1;exitX=0;exitY=0.5;exitDx=0;exitDy=0;" edge="1" parent="1" source="zswjcrRMalwncXxvHD72-71" target="zswjcrRMalwncXxvHD72-76">
          <mxGeometry relative="1" as="geometry" />
        </mxCell>
        <mxCell id="zswjcrRMalwncXxvHD72-109" value="[Є]" style="edgeLabel;html=1;align=center;verticalAlign=middle;resizable=0;points=[];" vertex="1" connectable="0" parent="zswjcrRMalwncXxvHD72-78">
          <mxGeometry x="-0.219" y="1" relative="1" as="geometry">
            <mxPoint as="offset" />
          </mxGeometry>
        </mxCell>
        <mxCell id="zswjcrRMalwncXxvHD72-71" value="" style="rhombus;whiteSpace=wrap;html=1;" vertex="1" parent="1">
          <mxGeometry x="430" y="620" width="20" height="30" as="geometry" />
        </mxCell>
        <mxCell id="zswjcrRMalwncXxvHD72-113" style="edgeStyle=orthogonalEdgeStyle;rounded=0;orthogonalLoop=1;jettySize=auto;html=1;endArrow=none;endFill=0;" edge="1" parent="1" source="zswjcrRMalwncXxvHD72-73">
          <mxGeometry relative="1" as="geometry">
            <mxPoint x="600" y="695" as="targetPoint" />
            <Array as="points">
              <mxPoint x="600" y="695" />
              <mxPoint x="600" y="695" />
            </Array>
          </mxGeometry>
        </mxCell>
        <mxCell id="zswjcrRMalwncXxvHD72-73" value="&lt;b&gt;Ref&lt;/b&gt;" style="shape=umlFrame;whiteSpace=wrap;html=1;pointerEvents=0;recursiveResize=0;container=1;collapsible=0;width=40;height=20;" vertex="1" parent="1">
          <mxGeometry x="450" y="670" width="140" height="50" as="geometry" />
        </mxCell>
        <mxCell id="zswjcrRMalwncXxvHD72-74" value="Вимкнути діод" style="text;align=center;html=1;" vertex="1" parent="zswjcrRMalwncXxvHD72-73">
          <mxGeometry width="120" height="20" relative="1" as="geometry">
            <mxPoint x="10" y="20" as="offset" />
          </mxGeometry>
        </mxCell>
        <mxCell id="zswjcrRMalwncXxvHD72-81" value="" style="edgeStyle=orthogonalEdgeStyle;rounded=0;orthogonalLoop=1;jettySize=auto;html=1;" edge="1" parent="1" source="zswjcrRMalwncXxvHD72-76" target="zswjcrRMalwncXxvHD72-79">
          <mxGeometry relative="1" as="geometry" />
        </mxCell>
        <mxCell id="zswjcrRMalwncXxvHD72-76" value="&lt;b&gt;Ref&lt;/b&gt;" style="shape=umlFrame;whiteSpace=wrap;html=1;pointerEvents=0;recursiveResize=0;container=1;collapsible=0;width=40;height=20;" vertex="1" parent="1">
          <mxGeometry x="290" y="670" width="140" height="50" as="geometry" />
        </mxCell>
        <mxCell id="zswjcrRMalwncXxvHD72-77" value="Увімкнути діод" style="text;align=center;html=1;" vertex="1" parent="zswjcrRMalwncXxvHD72-76">
          <mxGeometry width="120" height="20" relative="1" as="geometry">
            <mxPoint x="10" y="20" as="offset" />
          </mxGeometry>
        </mxCell>
        <mxCell id="zswjcrRMalwncXxvHD72-84" value="" style="edgeStyle=orthogonalEdgeStyle;rounded=0;orthogonalLoop=1;jettySize=auto;html=1;" edge="1" parent="1" source="zswjcrRMalwncXxvHD72-79" target="zswjcrRMalwncXxvHD72-83">
          <mxGeometry relative="1" as="geometry" />
        </mxCell>
        <mxCell id="zswjcrRMalwncXxvHD72-79" value="&lt;b style=&quot;border-color: var(--border-color);&quot;&gt;Ref&lt;/b&gt;" style="shape=umlFrame;whiteSpace=wrap;html=1;pointerEvents=0;recursiveResize=0;container=1;collapsible=0;width=40;height=20;" vertex="1" parent="1">
          <mxGeometry x="250" y="740" width="220" height="50" as="geometry" />
        </mxCell>
        <mxCell id="zswjcrRMalwncXxvHD72-80" value="Перевірка MQTT повідомлень" style="text;align=center;html=1;" vertex="1" parent="zswjcrRMalwncXxvHD72-79">
          <mxGeometry width="200" height="20" relative="1" as="geometry">
            <mxPoint x="10" y="20" as="offset" />
          </mxGeometry>
        </mxCell>
        <mxCell id="zswjcrRMalwncXxvHD72-87" style="edgeStyle=orthogonalEdgeStyle;rounded=0;orthogonalLoop=1;jettySize=auto;html=1;" edge="1" parent="1" source="zswjcrRMalwncXxvHD72-83" target="zswjcrRMalwncXxvHD72-85">
          <mxGeometry relative="1" as="geometry" />
        </mxCell>
        <mxCell id="zswjcrRMalwncXxvHD72-107" value="[Є]" style="edgeLabel;html=1;align=center;verticalAlign=middle;resizable=0;points=[];" vertex="1" connectable="0" parent="zswjcrRMalwncXxvHD72-87">
          <mxGeometry x="0.5582" y="1" relative="1" as="geometry">
            <mxPoint x="11" y="-1" as="offset" />
          </mxGeometry>
        </mxCell>
        <mxCell id="zswjcrRMalwncXxvHD72-104" style="edgeStyle=orthogonalEdgeStyle;rounded=0;orthogonalLoop=1;jettySize=auto;html=1;endArrow=none;endFill=0;" edge="1" parent="1" source="zswjcrRMalwncXxvHD72-83">
          <mxGeometry relative="1" as="geometry">
            <mxPoint x="600" y="825" as="targetPoint" />
          </mxGeometry>
        </mxCell>
        <mxCell id="zswjcrRMalwncXxvHD72-105" value="[Немає]" style="edgeLabel;html=1;align=center;verticalAlign=middle;resizable=0;points=[];" vertex="1" connectable="0" parent="zswjcrRMalwncXxvHD72-104">
          <mxGeometry x="-0.2901" y="1" relative="1" as="geometry">
            <mxPoint x="33" y="1" as="offset" />
          </mxGeometry>
        </mxCell>
        <mxCell id="zswjcrRMalwncXxvHD72-83" value="" style="rhombus;whiteSpace=wrap;html=1;" vertex="1" parent="1">
          <mxGeometry x="350" y="810" width="20" height="30" as="geometry" />
        </mxCell>
        <mxCell id="zswjcrRMalwncXxvHD72-89" style="edgeStyle=orthogonalEdgeStyle;rounded=0;orthogonalLoop=1;jettySize=auto;html=1;" edge="1" parent="1" source="zswjcrRMalwncXxvHD72-85" target="zswjcrRMalwncXxvHD72-88">
          <mxGeometry relative="1" as="geometry" />
        </mxCell>
        <mxCell id="zswjcrRMalwncXxvHD72-85" value="&lt;b&gt;Ref&lt;/b&gt;" style="shape=umlFrame;whiteSpace=wrap;html=1;pointerEvents=0;recursiveResize=0;container=1;collapsible=0;width=40;height=20;" vertex="1" parent="1">
          <mxGeometry x="130" y="800" width="180" height="50" as="geometry" />
        </mxCell>
        <mxCell id="zswjcrRMalwncXxvHD72-86" value="Перевірка наявності комірки" style="text;align=center;html=1;" vertex="1" parent="zswjcrRMalwncXxvHD72-85">
          <mxGeometry width="160" height="20" relative="1" as="geometry">
            <mxPoint x="10" y="20" as="offset" />
          </mxGeometry>
        </mxCell>
        <mxCell id="zswjcrRMalwncXxvHD72-92" value="" style="edgeStyle=orthogonalEdgeStyle;rounded=0;orthogonalLoop=1;jettySize=auto;html=1;" edge="1" parent="1" source="zswjcrRMalwncXxvHD72-88" target="zswjcrRMalwncXxvHD72-90">
          <mxGeometry relative="1" as="geometry" />
        </mxCell>
        <mxCell id="zswjcrRMalwncXxvHD72-108" value="[Є]" style="edgeLabel;html=1;align=center;verticalAlign=middle;resizable=0;points=[];" vertex="1" connectable="0" parent="zswjcrRMalwncXxvHD72-92">
          <mxGeometry x="0.5506" y="1" relative="1" as="geometry">
            <mxPoint x="-1" y="-9" as="offset" />
          </mxGeometry>
        </mxCell>
        <mxCell id="zswjcrRMalwncXxvHD72-103" style="edgeStyle=orthogonalEdgeStyle;rounded=0;orthogonalLoop=1;jettySize=auto;html=1;endArrow=none;endFill=0;" edge="1" parent="1" source="zswjcrRMalwncXxvHD72-88">
          <mxGeometry relative="1" as="geometry">
            <mxPoint x="600" y="885" as="targetPoint" />
          </mxGeometry>
        </mxCell>
        <mxCell id="zswjcrRMalwncXxvHD72-106" value="[Немає]" style="edgeLabel;html=1;align=center;verticalAlign=middle;resizable=0;points=[];" vertex="1" connectable="0" parent="zswjcrRMalwncXxvHD72-103">
          <mxGeometry x="-0.2369" y="1" relative="1" as="geometry">
            <mxPoint x="114" y="1" as="offset" />
          </mxGeometry>
        </mxCell>
        <mxCell id="zswjcrRMalwncXxvHD72-88" value="" style="rhombus;whiteSpace=wrap;html=1;" vertex="1" parent="1">
          <mxGeometry x="210" y="870" width="20" height="30" as="geometry" />
        </mxCell>
        <mxCell id="zswjcrRMalwncXxvHD72-97" style="edgeStyle=orthogonalEdgeStyle;rounded=0;orthogonalLoop=1;jettySize=auto;html=1;" edge="1" parent="1" source="zswjcrRMalwncXxvHD72-90" target="zswjcrRMalwncXxvHD72-93">
          <mxGeometry relative="1" as="geometry" />
        </mxCell>
        <mxCell id="zswjcrRMalwncXxvHD72-90" value="&lt;b&gt;Ref&lt;/b&gt;" style="shape=umlFrame;whiteSpace=wrap;html=1;pointerEvents=0;recursiveResize=0;container=1;collapsible=0;width=40;height=20;" vertex="1" parent="1">
          <mxGeometry x="160" y="930" width="120" height="50" as="geometry" />
        </mxCell>
        <mxCell id="zswjcrRMalwncXxvHD72-91" value="Відкрити комірку" style="text;align=center;html=1;" vertex="1" parent="zswjcrRMalwncXxvHD72-90">
          <mxGeometry width="100" height="20" relative="1" as="geometry">
            <mxPoint x="10" y="20" as="offset" />
          </mxGeometry>
        </mxCell>
        <mxCell id="zswjcrRMalwncXxvHD72-98" style="edgeStyle=orthogonalEdgeStyle;rounded=0;orthogonalLoop=1;jettySize=auto;html=1;" edge="1" parent="1" source="zswjcrRMalwncXxvHD72-93" target="zswjcrRMalwncXxvHD72-95">
          <mxGeometry relative="1" as="geometry" />
        </mxCell>
        <mxCell id="zswjcrRMalwncXxvHD72-93" value="&lt;b&gt;Ref&lt;/b&gt;" style="shape=umlFrame;whiteSpace=wrap;html=1;pointerEvents=0;recursiveResize=0;container=1;collapsible=0;width=40;height=20;" vertex="1" parent="1">
          <mxGeometry x="300" y="930" width="120" height="50" as="geometry" />
        </mxCell>
        <mxCell id="zswjcrRMalwncXxvHD72-94" value="Почекати 5 секунд" style="text;align=center;html=1;" vertex="1" parent="zswjcrRMalwncXxvHD72-93">
          <mxGeometry width="100" height="20" relative="1" as="geometry">
            <mxPoint x="10" y="20" as="offset" />
          </mxGeometry>
        </mxCell>
        <mxCell id="zswjcrRMalwncXxvHD72-102" value="" style="edgeStyle=orthogonalEdgeStyle;rounded=0;orthogonalLoop=1;jettySize=auto;html=1;" edge="1" parent="1" source="zswjcrRMalwncXxvHD72-95" target="zswjcrRMalwncXxvHD72-67">
          <mxGeometry relative="1" as="geometry">
            <mxPoint x="457.20000000000005" y="1198.7000000000003" as="targetPoint" />
            <Array as="points">
              <mxPoint x="600" y="955" />
              <mxPoint x="600" y="575" />
            </Array>
          </mxGeometry>
        </mxCell>
        <mxCell id="zswjcrRMalwncXxvHD72-95" value="&lt;b&gt;Ref&lt;/b&gt;" style="shape=umlFrame;whiteSpace=wrap;html=1;pointerEvents=0;recursiveResize=0;container=1;collapsible=0;width=40;height=20;" vertex="1" parent="1">
          <mxGeometry x="440" y="930" width="120" height="50" as="geometry" />
        </mxCell>
        <mxCell id="zswjcrRMalwncXxvHD72-96" value="Закрити комірку" style="text;align=center;html=1;" vertex="1" parent="zswjcrRMalwncXxvHD72-95">
          <mxGeometry width="100" height="20" relative="1" as="geometry">
            <mxPoint x="10" y="20" as="offset" />
          </mxGeometry>
        </mxCell>
      </root>
    </mxGraphModel>
  </diagram>
  <diagram id="4FyG-PxxAIIpwH2PDaL7" name="Activity">
    <mxGraphModel dx="978" dy="566" grid="1" gridSize="10" guides="1" tooltips="1" connect="1" arrows="1" fold="1" page="1" pageScale="1" pageWidth="850" pageHeight="1100" math="0" shadow="0">
      <root>
        <mxCell id="0" />
        <mxCell id="1" parent="0" />
        <mxCell id="tUj53khMk2jWylu8mosF-1" value="" style="edgeStyle=orthogonalEdgeStyle;rounded=0;orthogonalLoop=1;jettySize=auto;html=1;" edge="1" parent="1" source="tUj53khMk2jWylu8mosF-2" target="tUj53khMk2jWylu8mosF-87">
          <mxGeometry relative="1" as="geometry" />
        </mxCell>
        <mxCell id="tUj53khMk2jWylu8mosF-2" value="" style="ellipse;whiteSpace=wrap;html=1;aspect=fixed;" vertex="1" parent="1">
          <mxGeometry x="440" y="60" width="40" height="40" as="geometry" />
        </mxCell>
        <mxCell id="tUj53khMk2jWylu8mosF-3" value="" style="edgeStyle=orthogonalEdgeStyle;rounded=0;orthogonalLoop=1;jettySize=auto;html=1;" edge="1" parent="1" source="tUj53khMk2jWylu8mosF-87" target="tUj53khMk2jWylu8mosF-88">
          <mxGeometry relative="1" as="geometry">
            <mxPoint x="460" y="190" as="targetPoint" />
          </mxGeometry>
        </mxCell>
        <mxCell id="tUj53khMk2jWylu8mosF-6" value="" style="edgeStyle=orthogonalEdgeStyle;rounded=0;orthogonalLoop=1;jettySize=auto;html=1;" edge="1" parent="1" source="tUj53khMk2jWylu8mosF-88" target="tUj53khMk2jWylu8mosF-13">
          <mxGeometry relative="1" as="geometry">
            <mxPoint x="460" y="240" as="sourcePoint" />
          </mxGeometry>
        </mxCell>
        <mxCell id="tUj53khMk2jWylu8mosF-9" style="edgeStyle=orthogonalEdgeStyle;rounded=0;orthogonalLoop=1;jettySize=auto;html=1;" edge="1" parent="1" source="tUj53khMk2jWylu8mosF-13" target="tUj53khMk2jWylu8mosF-89">
          <mxGeometry relative="1" as="geometry">
            <mxPoint x="330" y="275" as="targetPoint" />
          </mxGeometry>
        </mxCell>
        <mxCell id="tUj53khMk2jWylu8mosF-10" value="[Так]" style="edgeLabel;html=1;align=center;verticalAlign=middle;resizable=0;points=[];" vertex="1" connectable="0" parent="tUj53khMk2jWylu8mosF-9">
          <mxGeometry x="0.0201" y="2" relative="1" as="geometry">
            <mxPoint x="5" y="-2" as="offset" />
          </mxGeometry>
        </mxCell>
        <mxCell id="tUj53khMk2jWylu8mosF-11" style="edgeStyle=orthogonalEdgeStyle;rounded=0;orthogonalLoop=1;jettySize=auto;html=1;" edge="1" parent="1" source="tUj53khMk2jWylu8mosF-13" target="tUj53khMk2jWylu8mosF-91">
          <mxGeometry relative="1" as="geometry">
            <mxPoint x="460" y="375" as="targetPoint" />
          </mxGeometry>
        </mxCell>
        <mxCell id="tUj53khMk2jWylu8mosF-12" value="[Ні]" style="edgeLabel;html=1;align=center;verticalAlign=middle;resizable=0;points=[];" vertex="1" connectable="0" parent="tUj53khMk2jWylu8mosF-11">
          <mxGeometry x="-0.3489" y="-1" relative="1" as="geometry">
            <mxPoint x="1" y="-6" as="offset" />
          </mxGeometry>
        </mxCell>
        <mxCell id="tUj53khMk2jWylu8mosF-13" value="" style="rhombus;whiteSpace=wrap;html=1;" vertex="1" parent="1">
          <mxGeometry x="440" y="230" width="40" height="40" as="geometry" />
        </mxCell>
        <mxCell id="tUj53khMk2jWylu8mosF-14" value="" style="edgeStyle=orthogonalEdgeStyle;rounded=0;orthogonalLoop=1;jettySize=auto;html=1;" edge="1" parent="1" source="tUj53khMk2jWylu8mosF-89" target="tUj53khMk2jWylu8mosF-90">
          <mxGeometry relative="1" as="geometry">
            <mxPoint x="210" y="300" as="sourcePoint" />
            <mxPoint x="210" y="320" as="targetPoint" />
          </mxGeometry>
        </mxCell>
        <mxCell id="tUj53khMk2jWylu8mosF-17" style="edgeStyle=orthogonalEdgeStyle;rounded=0;orthogonalLoop=1;jettySize=auto;html=1;" edge="1" parent="1" source="tUj53khMk2jWylu8mosF-90" target="tUj53khMk2jWylu8mosF-91">
          <mxGeometry relative="1" as="geometry">
            <Array as="points" />
            <mxPoint x="310" y="400" as="sourcePoint" />
            <mxPoint x="390" y="400" as="targetPoint" />
          </mxGeometry>
        </mxCell>
        <mxCell id="tUj53khMk2jWylu8mosF-31" style="edgeStyle=orthogonalEdgeStyle;rounded=0;orthogonalLoop=1;jettySize=auto;html=1;" edge="1" parent="1" source="tUj53khMk2jWylu8mosF-91" target="tUj53khMk2jWylu8mosF-92">
          <mxGeometry relative="1" as="geometry">
            <mxPoint x="460" y="390" as="targetPoint" />
            <mxPoint x="460" y="425" as="sourcePoint" />
          </mxGeometry>
        </mxCell>
        <mxCell id="tUj53khMk2jWylu8mosF-48" value="" style="edgeStyle=orthogonalEdgeStyle;rounded=0;orthogonalLoop=1;jettySize=auto;html=1;" edge="1" parent="1" source="tUj53khMk2jWylu8mosF-93" target="tUj53khMk2jWylu8mosF-55">
          <mxGeometry relative="1" as="geometry">
            <mxPoint x="440" y="600" as="sourcePoint" />
          </mxGeometry>
        </mxCell>
        <mxCell id="tUj53khMk2jWylu8mosF-51" style="edgeStyle=orthogonalEdgeStyle;rounded=0;orthogonalLoop=1;jettySize=auto;html=1;exitX=1;exitY=0.5;exitDx=0;exitDy=0;" edge="1" parent="1" source="tUj53khMk2jWylu8mosF-55" target="tUj53khMk2jWylu8mosF-95">
          <mxGeometry relative="1" as="geometry" />
        </mxCell>
        <mxCell id="tUj53khMk2jWylu8mosF-52" value="[Немає]" style="edgeLabel;html=1;align=center;verticalAlign=middle;resizable=0;points=[];" vertex="1" connectable="0" parent="tUj53khMk2jWylu8mosF-51">
          <mxGeometry x="-0.1581" y="1" relative="1" as="geometry">
            <mxPoint x="10" y="11" as="offset" />
          </mxGeometry>
        </mxCell>
        <mxCell id="tUj53khMk2jWylu8mosF-53" style="edgeStyle=orthogonalEdgeStyle;rounded=0;orthogonalLoop=1;jettySize=auto;html=1;exitX=0;exitY=0.5;exitDx=0;exitDy=0;" edge="1" parent="1" source="tUj53khMk2jWylu8mosF-55" target="tUj53khMk2jWylu8mosF-96">
          <mxGeometry relative="1" as="geometry" />
        </mxCell>
        <mxCell id="tUj53khMk2jWylu8mosF-54" value="[Є]" style="edgeLabel;html=1;align=center;verticalAlign=middle;resizable=0;points=[];" vertex="1" connectable="0" parent="tUj53khMk2jWylu8mosF-53">
          <mxGeometry x="-0.219" y="1" relative="1" as="geometry">
            <mxPoint x="-13" y="9" as="offset" />
          </mxGeometry>
        </mxCell>
        <mxCell id="tUj53khMk2jWylu8mosF-55" value="" style="rhombus;whiteSpace=wrap;html=1;" vertex="1" parent="1">
          <mxGeometry x="440" y="460" width="40" height="40" as="geometry" />
        </mxCell>
        <mxCell id="tUj53khMk2jWylu8mosF-56" style="edgeStyle=orthogonalEdgeStyle;rounded=0;orthogonalLoop=1;jettySize=auto;html=1;endArrow=none;endFill=0;" edge="1" parent="1" source="tUj53khMk2jWylu8mosF-95">
          <mxGeometry relative="1" as="geometry">
            <mxPoint x="590" y="520" as="targetPoint" />
          </mxGeometry>
        </mxCell>
        <mxCell id="tUj53khMk2jWylu8mosF-59" value="" style="edgeStyle=orthogonalEdgeStyle;rounded=0;orthogonalLoop=1;jettySize=auto;html=1;" edge="1" parent="1" source="tUj53khMk2jWylu8mosF-96" target="tUj53khMk2jWylu8mosF-99">
          <mxGeometry relative="1" as="geometry">
            <mxPoint x="360" y="720" as="sourcePoint" />
          </mxGeometry>
        </mxCell>
        <mxCell id="tUj53khMk2jWylu8mosF-62" value="" style="edgeStyle=orthogonalEdgeStyle;rounded=0;orthogonalLoop=1;jettySize=auto;html=1;" edge="1" parent="1" source="tUj53khMk2jWylu8mosF-99" target="tUj53khMk2jWylu8mosF-69">
          <mxGeometry relative="1" as="geometry">
            <mxPoint x="440" y="680" as="sourcePoint" />
          </mxGeometry>
        </mxCell>
        <mxCell id="tUj53khMk2jWylu8mosF-65" style="edgeStyle=orthogonalEdgeStyle;rounded=0;orthogonalLoop=1;jettySize=auto;html=1;" edge="1" parent="1" source="tUj53khMk2jWylu8mosF-69" target="tUj53khMk2jWylu8mosF-100">
          <mxGeometry relative="1" as="geometry">
            <mxPoint x="410" y="650" as="targetPoint" />
          </mxGeometry>
        </mxCell>
        <mxCell id="tUj53khMk2jWylu8mosF-66" value="[Є]" style="edgeLabel;html=1;align=center;verticalAlign=middle;resizable=0;points=[];" vertex="1" connectable="0" parent="tUj53khMk2jWylu8mosF-65">
          <mxGeometry x="0.5582" y="1" relative="1" as="geometry">
            <mxPoint x="9" y="-1" as="offset" />
          </mxGeometry>
        </mxCell>
        <mxCell id="tUj53khMk2jWylu8mosF-67" style="edgeStyle=orthogonalEdgeStyle;rounded=0;orthogonalLoop=1;jettySize=auto;html=1;endArrow=none;endFill=0;" edge="1" parent="1" source="tUj53khMk2jWylu8mosF-69">
          <mxGeometry relative="1" as="geometry">
            <mxPoint x="590" y="630" as="targetPoint" />
          </mxGeometry>
        </mxCell>
        <mxCell id="tUj53khMk2jWylu8mosF-68" value="[Немає]" style="edgeLabel;html=1;align=center;verticalAlign=middle;resizable=0;points=[];" vertex="1" connectable="0" parent="tUj53khMk2jWylu8mosF-67">
          <mxGeometry x="-0.2901" y="1" relative="1" as="geometry">
            <mxPoint x="40" y="1" as="offset" />
          </mxGeometry>
        </mxCell>
        <mxCell id="tUj53khMk2jWylu8mosF-69" value="" style="rhombus;whiteSpace=wrap;html=1;" vertex="1" parent="1">
          <mxGeometry x="380" y="610" width="40" height="40" as="geometry" />
        </mxCell>
        <mxCell id="tUj53khMk2jWylu8mosF-70" style="edgeStyle=orthogonalEdgeStyle;rounded=0;orthogonalLoop=1;jettySize=auto;html=1;" edge="1" parent="1" source="tUj53khMk2jWylu8mosF-100" target="tUj53khMk2jWylu8mosF-77">
          <mxGeometry relative="1" as="geometry">
            <mxPoint x="320" y="675" as="sourcePoint" />
          </mxGeometry>
        </mxCell>
        <mxCell id="tUj53khMk2jWylu8mosF-73" value="" style="edgeStyle=orthogonalEdgeStyle;rounded=0;orthogonalLoop=1;jettySize=auto;html=1;" edge="1" parent="1" source="tUj53khMk2jWylu8mosF-77" target="tUj53khMk2jWylu8mosF-103">
          <mxGeometry relative="1" as="geometry">
            <mxPoint x="190" y="860" as="targetPoint" />
          </mxGeometry>
        </mxCell>
        <mxCell id="tUj53khMk2jWylu8mosF-74" value="[Є]" style="edgeLabel;html=1;align=center;verticalAlign=middle;resizable=0;points=[];" vertex="1" connectable="0" parent="tUj53khMk2jWylu8mosF-73">
          <mxGeometry x="0.5506" y="1" relative="1" as="geometry">
            <mxPoint x="-1" y="-9" as="offset" />
          </mxGeometry>
        </mxCell>
        <mxCell id="tUj53khMk2jWylu8mosF-75" style="edgeStyle=orthogonalEdgeStyle;rounded=0;orthogonalLoop=1;jettySize=auto;html=1;endArrow=none;endFill=0;" edge="1" parent="1" source="tUj53khMk2jWylu8mosF-77">
          <mxGeometry relative="1" as="geometry">
            <mxPoint x="590" y="690" as="targetPoint" />
          </mxGeometry>
        </mxCell>
        <mxCell id="tUj53khMk2jWylu8mosF-76" value="[Немає]" style="edgeLabel;html=1;align=center;verticalAlign=middle;resizable=0;points=[];" vertex="1" connectable="0" parent="tUj53khMk2jWylu8mosF-75">
          <mxGeometry x="-0.2369" y="1" relative="1" as="geometry">
            <mxPoint x="103" y="1" as="offset" />
          </mxGeometry>
        </mxCell>
        <mxCell id="tUj53khMk2jWylu8mosF-77" value="" style="rhombus;whiteSpace=wrap;html=1;" vertex="1" parent="1">
          <mxGeometry x="270" y="670" width="40" height="40" as="geometry" />
        </mxCell>
        <mxCell id="tUj53khMk2jWylu8mosF-84" value="" style="edgeStyle=orthogonalEdgeStyle;rounded=0;orthogonalLoop=1;jettySize=auto;html=1;" edge="1" parent="1" source="tUj53khMk2jWylu8mosF-105" target="tUj53khMk2jWylu8mosF-93">
          <mxGeometry relative="1" as="geometry">
            <mxPoint x="550" y="575" as="targetPoint" />
            <Array as="points">
              <mxPoint x="590" y="750" />
              <mxPoint x="590" y="420" />
            </Array>
            <mxPoint x="250" y="1025" as="sourcePoint" />
          </mxGeometry>
        </mxCell>
        <mxCell id="tUj53khMk2jWylu8mosF-87" value="Підключення комірок" style="rounded=1;whiteSpace=wrap;html=1;" vertex="1" parent="1">
          <mxGeometry x="400" y="120" width="120" height="30" as="geometry" />
        </mxCell>
        <mxCell id="tUj53khMk2jWylu8mosF-88" value="Перевірка на необхідність зміни конфігурації" style="rounded=1;whiteSpace=wrap;html=1;" vertex="1" parent="1">
          <mxGeometry x="385" y="170" width="150" height="40" as="geometry" />
        </mxCell>
        <mxCell id="tUj53khMk2jWylu8mosF-89" value="Запуск точки доступу для налаштування" style="rounded=1;whiteSpace=wrap;html=1;" vertex="1" parent="1">
          <mxGeometry x="270" y="230" width="130" height="40" as="geometry" />
        </mxCell>
        <mxCell id="tUj53khMk2jWylu8mosF-90" value="Налаштування" style="rounded=1;whiteSpace=wrap;html=1;" vertex="1" parent="1">
          <mxGeometry x="290" y="300" width="90" height="20" as="geometry" />
        </mxCell>
        <mxCell id="tUj53khMk2jWylu8mosF-91" value="Підключення до WiFi" style="rounded=1;whiteSpace=wrap;html=1;" vertex="1" parent="1">
          <mxGeometry x="400" y="300" width="120" height="20" as="geometry" />
        </mxCell>
        <mxCell id="tUj53khMk2jWylu8mosF-94" style="edgeStyle=orthogonalEdgeStyle;rounded=0;orthogonalLoop=1;jettySize=auto;html=1;" edge="1" parent="1" source="tUj53khMk2jWylu8mosF-92" target="tUj53khMk2jWylu8mosF-93">
          <mxGeometry relative="1" as="geometry" />
        </mxCell>
        <mxCell id="tUj53khMk2jWylu8mosF-92" value="Підключення до MQTT брокера" style="rounded=1;whiteSpace=wrap;html=1;" vertex="1" parent="1">
          <mxGeometry x="410" y="340" width="100" height="40" as="geometry" />
        </mxCell>
        <mxCell id="tUj53khMk2jWylu8mosF-93" value="Перевірка підключення до Інтернету" style="rounded=1;whiteSpace=wrap;html=1;" vertex="1" parent="1">
          <mxGeometry x="390" y="400" width="140" height="40" as="geometry" />
        </mxCell>
        <mxCell id="tUj53khMk2jWylu8mosF-95" value="Вимкнути діод" style="rounded=1;whiteSpace=wrap;html=1;" vertex="1" parent="1">
          <mxGeometry x="470" y="510" width="100" height="20" as="geometry" />
        </mxCell>
        <mxCell id="tUj53khMk2jWylu8mosF-96" value="Увімкнути діод" style="rounded=1;whiteSpace=wrap;html=1;" vertex="1" parent="1">
          <mxGeometry x="350" y="510" width="100" height="20" as="geometry" />
        </mxCell>
        <mxCell id="tUj53khMk2jWylu8mosF-99" value="Перевірка MQTT повідомлень" style="rounded=1;whiteSpace=wrap;html=1;" vertex="1" parent="1">
          <mxGeometry x="350" y="550" width="100" height="40" as="geometry" />
        </mxCell>
        <mxCell id="tUj53khMk2jWylu8mosF-100" value="Перевірка наявності комірки" style="rounded=1;whiteSpace=wrap;html=1;" vertex="1" parent="1">
          <mxGeometry x="230" y="610" width="120" height="40" as="geometry" />
        </mxCell>
        <mxCell id="tUj53khMk2jWylu8mosF-106" style="edgeStyle=orthogonalEdgeStyle;rounded=0;orthogonalLoop=1;jettySize=auto;html=1;" edge="1" parent="1" source="tUj53khMk2jWylu8mosF-103" target="tUj53khMk2jWylu8mosF-104">
          <mxGeometry relative="1" as="geometry" />
        </mxCell>
        <mxCell id="tUj53khMk2jWylu8mosF-103" value="Відкрити комірку" style="rounded=1;whiteSpace=wrap;html=1;" vertex="1" parent="1">
          <mxGeometry x="240" y="740" width="100" height="20" as="geometry" />
        </mxCell>
        <mxCell id="tUj53khMk2jWylu8mosF-107" style="edgeStyle=orthogonalEdgeStyle;rounded=0;orthogonalLoop=1;jettySize=auto;html=1;" edge="1" parent="1" source="tUj53khMk2jWylu8mosF-104" target="tUj53khMk2jWylu8mosF-105">
          <mxGeometry relative="1" as="geometry" />
        </mxCell>
        <mxCell id="tUj53khMk2jWylu8mosF-104" value="Почекати 5 сек" style="rounded=1;whiteSpace=wrap;html=1;" vertex="1" parent="1">
          <mxGeometry x="360" y="740" width="100" height="20" as="geometry" />
        </mxCell>
        <mxCell id="tUj53khMk2jWylu8mosF-105" value="Закрити комірку" style="rounded=1;whiteSpace=wrap;html=1;" vertex="1" parent="1">
          <mxGeometry x="480" y="740" width="100" height="20" as="geometry" />
        </mxCell>
      </root>
    </mxGraphModel>
  </diagram>
  <diagram id="9oOTA1OoHbEXk1xL0Kun" name="Component">
    <mxGraphModel dx="810" dy="469" grid="1" gridSize="10" guides="1" tooltips="1" connect="1" arrows="1" fold="1" page="1" pageScale="1" pageWidth="850" pageHeight="1100" math="0" shadow="0">
      <root>
        <mxCell id="0" />
        <mxCell id="1" parent="0" />
        <mxCell id="XnYXMDgXKQF0LSBdD75Z-1" value="Main" style="shape=module;align=left;spacingLeft=20;align=center;verticalAlign=top;whiteSpace=wrap;html=1;" vertex="1" parent="1">
          <mxGeometry x="150" y="130" width="100" height="50" as="geometry" />
        </mxCell>
        <mxCell id="XnYXMDgXKQF0LSBdD75Z-2" value="Preferenced MQTT Client" style="shape=module;align=left;spacingLeft=20;align=center;verticalAlign=top;whiteSpace=wrap;html=1;" vertex="1" parent="1">
          <mxGeometry x="150" y="240" width="100" height="50" as="geometry" />
        </mxCell>
        <mxCell id="XnYXMDgXKQF0LSBdD75Z-3" value="" style="rounded=0;orthogonalLoop=1;jettySize=auto;html=1;endArrow=none;endFill=0;sketch=0;sourcePerimeterSpacing=0;targetPerimeterSpacing=0;" edge="1" target="XnYXMDgXKQF0LSBdD75Z-5" parent="1" source="XnYXMDgXKQF0LSBdD75Z-2">
          <mxGeometry relative="1" as="geometry">
            <mxPoint x="250" y="210" as="sourcePoint" />
          </mxGeometry>
        </mxCell>
        <mxCell id="XnYXMDgXKQF0LSBdD75Z-4" value="" style="rounded=0;orthogonalLoop=1;jettySize=auto;html=1;endArrow=halfCircle;endFill=0;endSize=6;strokeWidth=1;sketch=0;" edge="1" target="XnYXMDgXKQF0LSBdD75Z-5" parent="1" source="XnYXMDgXKQF0LSBdD75Z-1">
          <mxGeometry relative="1" as="geometry">
            <mxPoint x="250" y="220" as="sourcePoint" />
          </mxGeometry>
        </mxCell>
        <mxCell id="XnYXMDgXKQF0LSBdD75Z-14" value="MQTT client" style="edgeLabel;html=1;align=center;verticalAlign=middle;resizable=0;points=[];" vertex="1" connectable="0" parent="XnYXMDgXKQF0LSBdD75Z-4">
          <mxGeometry x="-0.341" relative="1" as="geometry">
            <mxPoint x="40" y="20" as="offset" />
          </mxGeometry>
        </mxCell>
        <mxCell id="XnYXMDgXKQF0LSBdD75Z-5" value="" style="ellipse;whiteSpace=wrap;html=1;align=center;aspect=fixed;resizable=0;points=[];outlineConnect=0;sketch=0;" vertex="1" parent="1">
          <mxGeometry x="195" y="210" width="10" height="10" as="geometry" />
        </mxCell>
        <mxCell id="XnYXMDgXKQF0LSBdD75Z-10" value="" style="rounded=0;orthogonalLoop=1;jettySize=auto;html=1;endArrow=halfCircle;endFill=0;endSize=6;strokeWidth=1;sketch=0;" edge="1" parent="1">
          <mxGeometry relative="1" as="geometry">
            <mxPoint x="250" y="140" as="sourcePoint" />
            <mxPoint x="280" y="140" as="targetPoint" />
          </mxGeometry>
        </mxCell>
        <mxCell id="XnYXMDgXKQF0LSBdD75Z-13" value="Servo" style="edgeLabel;html=1;align=center;verticalAlign=middle;resizable=0;points=[];" vertex="1" connectable="0" parent="XnYXMDgXKQF0LSBdD75Z-10">
          <mxGeometry x="-0.4436" relative="1" as="geometry">
            <mxPoint x="37" as="offset" />
          </mxGeometry>
        </mxCell>
        <mxCell id="XnYXMDgXKQF0LSBdD75Z-11" value="" style="rounded=0;orthogonalLoop=1;jettySize=auto;html=1;endArrow=halfCircle;endFill=0;endSize=6;strokeWidth=1;sketch=0;" edge="1" parent="1">
          <mxGeometry relative="1" as="geometry">
            <mxPoint x="250" y="170" as="sourcePoint" />
            <mxPoint x="280" y="170" as="targetPoint" />
          </mxGeometry>
        </mxCell>
        <mxCell id="XnYXMDgXKQF0LSBdD75Z-12" value="WiFiManager" style="edgeLabel;html=1;align=center;verticalAlign=middle;resizable=0;points=[];" vertex="1" connectable="0" parent="XnYXMDgXKQF0LSBdD75Z-11">
          <mxGeometry x="-0.441" relative="1" as="geometry">
            <mxPoint x="55" as="offset" />
          </mxGeometry>
        </mxCell>
        <mxCell id="XnYXMDgXKQF0LSBdD75Z-15" value="" style="rounded=0;orthogonalLoop=1;jettySize=auto;html=1;endArrow=halfCircle;endFill=0;endSize=6;strokeWidth=1;sketch=0;" edge="1" parent="1">
          <mxGeometry relative="1" as="geometry">
            <mxPoint x="250" y="250" as="sourcePoint" />
            <mxPoint x="280" y="250" as="targetPoint" />
          </mxGeometry>
        </mxCell>
        <mxCell id="XnYXMDgXKQF0LSBdD75Z-16" value="MQTTPubSubClient" style="edgeLabel;html=1;align=center;verticalAlign=middle;resizable=0;points=[];" vertex="1" connectable="0" parent="XnYXMDgXKQF0LSBdD75Z-15">
          <mxGeometry x="-0.4436" relative="1" as="geometry">
            <mxPoint x="71" as="offset" />
          </mxGeometry>
        </mxCell>
        <mxCell id="XnYXMDgXKQF0LSBdD75Z-17" value="" style="rounded=0;orthogonalLoop=1;jettySize=auto;html=1;endArrow=halfCircle;endFill=0;endSize=6;strokeWidth=1;sketch=0;" edge="1" parent="1">
          <mxGeometry relative="1" as="geometry">
            <mxPoint x="250" y="280" as="sourcePoint" />
            <mxPoint x="280" y="280" as="targetPoint" />
          </mxGeometry>
        </mxCell>
        <mxCell id="XnYXMDgXKQF0LSBdD75Z-18" value="Preferences" style="edgeLabel;html=1;align=center;verticalAlign=middle;resizable=0;points=[];" vertex="1" connectable="0" parent="XnYXMDgXKQF0LSBdD75Z-17">
          <mxGeometry x="-0.4436" relative="1" as="geometry">
            <mxPoint x="52" as="offset" />
          </mxGeometry>
        </mxCell>
      </root>
    </mxGraphModel>
  </diagram>
</mxfile>
